<!-- (c) Carrd Inc. All rights reserved. -->
<svg width="40" height="40"  xmlns="http://www.w3.org/2000/svg" id="icon">
<path d="M39.7,20.4c-2.5,3.7-4.9,7.5-7.4,11.2c-0.1,0.2-0.3,0.4-0.5,0.6c-0.5,0.5-1.2,0.8-1.8,0.9 c-0.7,0.2-1.3,0.1-2,0.1c-0.1,0-0.2,0-0.3,0c-7.4,0-14.9,0-22.3,0c-0.1,0-0.2,0-0.2,0c-0.1,0-0.3,0-0.4-0.1 c-0.8-0.2-1.1-0.8-0.6-1.5c2.5-3.8,5-7.6,7.5-11.4c0.4-0.7,1-1.3,1.9-1.4c0.5-0.1,1.1-0.2,1.6-0.2c5.6,0,11.1,0,16.7,0 c1.3,0,2.7,0,4,0c1,0,2,0,2.9,0c0.7,0,1.1,0.3,1.3,0.9c0,0,0,0.1,0,0.1C39.9,19.9,39.8,20.2,39.7,20.4z M31.2,16.9 c-0.1,0-0.2,0-0.3,0c-5.6,0-11.1,0-16.7,0c-0.4,0-0.9,0.1-1.3,0.2c-0.9,0.3-1.8,0.7-2.3,1.6c-2.1,3.2-4.2,6.4-6.3,9.5 c-0.4,0.6-0.8,1.2-1.2,1.9c0-0.1,0-0.2,0-0.3c0-3,0-5.9,0-8.9C3,17,3,13,3,9.1C3,8,3.6,7.2,4.6,6.8c0.1,0,0.3-0.1,0.4-0.1 c3.3,0,6.6,0,9.9,0c0,0,0,0,0.1,0c1.3,0.3,1.9,1.1,1.9,2.4c0,0.8,0,1.5,0,2.3c0,0.1,0,0.2,0,0.2c0.1,0,0.2,0,0.3,0 c3.8,0,7.7,0,11.5,0c1.4,0,2.4,1,2.4,2.4c0,0.9,0,1.7,0,2.6C31.2,16.8,31.2,16.8,31.2,16.9z"/>
</svg>