<!-- (c) Font Awesome (fontawesome.io, SIL OFL) -->
<svg xmlns="http://www.w3.org/2000/svg" id="icon">
<path d="M13.98,30.77c0,1.17-0.41,2.17-1.23,2.99C11.94,34.59,10.94,35,9.77,35c-1.17,0-2.16-0.41-2.98-1.23 c-0.82-0.82-1.23-1.82-1.23-2.99s0.41-2.17,1.23-2.99c0.82-0.82,1.81-1.23,2.98-1.23c1.17,0,2.16,0.41,2.98,1.23 C13.57,28.6,13.98,29.6,13.98,30.77z M25.21,33.48c0.03,0.41-0.1,0.76-0.37,1.06C24.57,34.85,24.23,35,23.8,35h-2.96 c-0.37,0-0.68-0.12-0.94-0.36c-0.26-0.24-0.41-0.55-0.44-0.91c-0.32-3.36-1.67-6.23-4.05-8.62c-2.38-2.39-5.24-3.74-8.58-4.06 c-0.37-0.03-0.67-0.18-0.91-0.44c-0.24-0.26-0.36-0.58-0.36-0.95v-2.97c0-0.43,0.15-0.77,0.46-1.03c0.25-0.25,0.56-0.37,0.94-0.37 h0.11c2.34,0.19,4.57,0.78,6.71,1.77c2.13,0.99,4.03,2.32,5.68,4c1.67,1.66,2.99,3.56,3.98,5.7C24.43,28.89,25.02,31.13,25.21,33.48 z M36.43,33.52c0.03,0.4-0.1,0.74-0.39,1.03c-0.26,0.29-0.6,0.44-1.01,0.44h-3.14c-0.38,0-0.71-0.13-0.98-0.39 c-0.27-0.26-0.41-0.57-0.43-0.94c-0.18-3.16-0.91-6.15-2.21-8.99c-1.3-2.84-2.99-5.31-5.08-7.4c-2.08-2.09-4.54-3.79-7.37-5.1 c-2.83-1.31-5.81-2.05-8.96-2.25C6.51,9.93,6.2,9.79,5.95,9.52C5.69,9.24,5.56,8.92,5.56,8.56V5.41C5.56,5,5.71,4.66,6,4.4 C6.26,4.13,6.59,4,6.97,4h0.07c3.83,0.19,7.49,1.07,11,2.64c3.5,1.57,6.61,3.73,9.33,6.47c2.73,2.73,4.88,5.85,6.45,9.37 C35.37,26,36.24,29.68,36.43,33.52z"/>
</svg>