<!-- (c) Carrd Inc. All rights reserved. -->
<svg xmlns="http://www.w3.org/2000/svg" id="icon">
<path d="M39.3,14.8L25,29.1c-0.6,0.6-3.7,2-3.9,1.9c-0.1-0.1,1.2-3.3,1.8-3.9l14.3-14.3 c0.6-0.6,1.5-0.6,2.1,0C39.9,13.3,39.9,14.3,39.3,14.8z M12.5,28.7h6.3c0.6,0,1.2,0.5,1.2,1.2s-0.5,1.2-1.2,1.2h-6.3 c-0.6,0-1.2-0.5-1.2-1.2S11.9,28.7,12.5,28.7z M21.1,25.8h-8.6c-0.6,0-1.2-0.5-1.2-1.2s0.5-1.2,1.2-1.2h10.8l-1.9,1.9 C21.4,25.5,21.2,25.6,21.1,25.8z M12.5,15.3c-0.6,0-1.2-0.5-1.2-1.2s0.5-1.2,1.2-1.2h6.4c0.6,0,1.2,0.5,1.2,1.2s-0.5,1.2-1.2,1.2 H12.5z M28.3,18.5l-2.1,2.1H12.5c-0.6,0-1.2-0.5-1.2-1.2s0.5-1.2,1.2-1.2h15C27.9,18.2,28.1,18.3,28.3,18.5z M31.5,15.2H24 c-0.4,0-0.9-0.2-1.2-0.6c-0.3-0.3-0.5-0.8-0.5-1.2V5.9H8.5v28.2l23-0.1v-8.3l2.3-2.3v11.2c0,0.4-0.2,0.9-0.5,1.2 c-0.3,0.3-0.8,0.6-1.2,0.6H8c-0.4,0-0.9-0.2-1.2-0.6c-0.3-0.3-0.5-0.8-0.5-1.2V5.3c0-0.4,0.2-0.9,0.5-1.2C7.1,3.7,7.6,3.5,8,3.5 h16.1c0.4,0,1,0.1,1.6,0.3c0.5,0.2,1.1,0.6,1.4,0.9l5.4,5.8c0.3,0.3,0.6,0.8,0.9,1.4c0.1,0.4,0.2,0.8,0.3,1.1L31.5,15.2L31.5,15.2z M31,12.1l-5.6-5.8C25.2,6.3,25,6.2,24.7,6v6.9h6.7C31.3,12.6,31.2,12.4,31,12.1z"/>
</svg>